<?xml version="1.0" encoding="utf-8"?>
<!-- Generator: Adobe Illustrator 16.0.4, SVG Export Plug-In . SVG Version: 6.00 Build 0)  -->
<!DOCTYPE svg PUBLIC "-//W3C//DTD SVG 1.1//EN" "http://www.w3.org/Graphics/SVG/1.1/DTD/svg11.dtd">
<svg version="1.1" id="Layer_1" xmlns="http://www.w3.org/2000/svg" xmlns:xlink="http://www.w3.org/1999/xlink" x="0px" y="0px"
	 width="145px" height="109px" viewBox="0 0 145 109" enable-background="new 0 0 145 109" xml:space="preserve">
<path d="M145,0.022v106c0,1.657-1.344,3-3,3H3c-1.657,0-3-1.343-3-3v-106H145z"/>
<g>
	<path fill="#00EBCA" d="M25.667,45.792h-9.235V77.32h6.308V66.377h2.928c3.919,0,5.855-1.938,5.855-5.855v-8.875
		C31.521,47.728,29.585,45.792,25.667,45.792z M25.216,59.844c0,0.768-0.362,1.127-1.127,1.127h-1.35v-9.775h1.35
		c0.765,0,1.127,0.362,1.127,1.127V59.844z"/>
	<path fill="#00EBCA" d="M46.141,62.41c1.712-0.629,2.703-1.98,2.703-4.682v-6.082c0-3.919-1.936-5.855-5.857-5.855h-9.414V77.32
		h6.308V65.387h1.576c0.765,0,1.127,0.359,1.127,1.123V77.32h6.305V66.467C48.889,64.17,48.078,62.953,46.141,62.41z M42.538,58.9
		c0,0.764-0.36,1.125-1.127,1.125h-1.53v-8.739h1.53c0.767,0,1.127,0.36,1.127,1.125V58.9z"/>
	<path fill="#00EBCA" d="M66.827,71.736V51.377c0-3.918-1.936-5.856-5.854-5.856h-4.053c-3.919,0-5.856,1.938-5.856,5.856v20.359
		c0,3.92,1.938,5.857,5.856,5.857h4.053C64.892,77.594,66.827,75.656,66.827,71.736z M60.521,71.061
		c0,0.766-0.359,1.125-1.125,1.125h-0.902c-0.765,0-1.127-0.359-1.127-1.125V52.054c0-0.767,0.362-1.127,1.127-1.127h0.902
		c0.765,0,1.125,0.36,1.125,1.127V71.061z"/>
	<path fill="#00EBCA" d="M78.936,45.521h-4.055c-3.918,0-5.856,1.938-5.856,5.856v20.359c0,3.92,1.938,5.857,5.856,5.857h4.055
		c3.918,0,5.855-1.938,5.855-5.857V51.377C84.791,47.459,82.854,45.521,78.936,45.521z M78.484,71.061
		c0,0.766-0.359,1.125-1.129,1.125h-0.898c-0.766,0-1.125-0.359-1.125-1.125V52.054c0-0.767,0.359-1.127,1.125-1.127h0.898
		c0.77,0,1.129,0.36,1.129,1.127V71.061z"/>
	<polygon fill="#00EBCA" points="98.553,51.423 98.553,45.792 87.068,45.792 87.068,77.32 93.375,77.32 93.375,64.439 
		98.328,64.439 98.328,58.809 93.375,58.809 93.375,51.423 	"/>
	<path fill="#00EBCA" d="M128.68,24.351c0.004-0.111,0.016-0.21,0.016-0.327v-6.082c0-3.919-1.938-5.854-5.854-5.854h-9.416v12.263
		h-7.672v-6.634h5.408v-5.629H99.449v12.263h-5.801v-6.634h3.828v-5.629H83.514v5.629h3.828v6.634h-9.328v-6.634h3.83v-5.629H67.881
		v5.629h3.828v6.634h-6.121l-1.612-12.263h-8.603l-1.611,12.263h-4.407V12.087h-6.304v12.263h-3.153V12.087h-6.306v12.263h-8.569
		l-1.475-1.094c-0.765-0.538-1.082-1.035-1.082-2.027v-2.972c0-0.766,0.36-1.125,1.127-1.125h0.494c0.765,0,1.127,0.36,1.127,1.125
		V22.5h6.169v-4.828c0-3.919-1.936-5.856-5.854-5.856h-3.424c-3.917,0-5.854,1.938-5.854,5.856v5c0,0.626,0.052,1.175,0.159,1.677
		h-5.16v6.082H22.56l1.621,1.202c0.765,0.542,1.079,1.038,1.079,2.028v3.783c0,0.767-0.36,1.127-1.125,1.127h-0.585
		c-0.765,0-1.127-0.36-1.127-1.127v-5.189h-6.17v5.774c0,3.919,1.938,5.856,5.854,5.856h3.514c3.918,0,5.856-1.937,5.856-5.856
		v-5.809c0-0.684-0.059-1.265-0.178-1.789h2.295v13.184h6.306V30.433h3.153v13.184h6.304V30.433h3.607L51.23,43.616h5.72
		l0.451-4.593h3.963l0.496,4.593h6.262l-1.733-13.184h5.321v13.184h6.304V30.433h9.328v13.184h6.307V30.433h5.801v13.184h11.803
		v-5.629h-5.498v-7.554h7.672v13.184h6.305V31.68h1.576c0.768,0,1.127,0.362,1.127,1.127v10.81h6.309V32.763
		c0-0.958-0.152-1.718-0.457-2.33h5.965v-6.082H128.68z M59.382,18.807l0.543,5.544h-1.069L59.382,18.807z M60.826,33.526h-2.839
		l0.293-3.094h2.242L60.826,33.526z M119.73,17.584h1.533c0.766,0,1.125,0.358,1.125,1.125v5.642h-2.658V17.584z"/>
	<path fill="#FFFFFF" d="M19.681,91.596l-1.518-1.111c-0.281-0.197-0.421-0.393-0.421-0.801v-1.098c0-0.379,0.182-0.561,0.562-0.561
		h0.183c0.379,0,0.562,0.182,0.562,0.561v1.73h1.476v-1.785c0-1.211-0.604-1.814-1.814-1.814h-0.632
		c-1.224,0-1.828,0.604-1.828,1.828v1.35c0,0.76,0.196,1.223,0.872,1.701l1.519,1.111c0.281,0.209,0.422,0.393,0.422,0.801v1.348
		c0,0.381-0.183,0.564-0.577,0.564h-0.197c-0.394,0-0.576-0.184-0.576-0.564v-2.023H16.25v2.08c0,1.211,0.59,1.814,1.813,1.814
		h0.661c1.224,0,1.828-0.604,1.828-1.828v-1.602C20.552,92.496,20.341,92.074,19.681,91.596z"/>
	<polygon fill="#FFFFFF" points="21.554,88.164 22.903,88.164 22.903,96.643 24.408,96.643 24.408,88.164 25.757,88.164 
		25.757,86.803 21.554,86.803 	"/>
	<path fill="#FFFFFF" d="M30.26,92.002c0.547-0.223,0.857-0.645,0.857-1.518v-1.855c0-1.223-0.604-1.826-1.828-1.826h-2.475v9.84
		h1.504v-3.951h0.674c0.436,0,0.633,0.197,0.633,0.633v3.318h1.505v-3.346C31.131,92.553,30.878,92.172,30.26,92.002z
		 M29.613,90.781c0,0.406-0.197,0.604-0.619,0.604h-0.674v-3.248h0.731c0.379,0,0.562,0.184,0.562,0.562V90.781z"/>
	<path fill="#FFFFFF" d="M34.942,86.717h-0.801c-1.223,0-1.827,0.604-1.827,1.828v6.354c0,1.225,0.604,1.828,1.827,1.828h0.801
		c1.224,0,1.828-0.604,1.828-1.828v-6.354C36.771,87.32,36.166,86.717,34.942,86.717z M35.266,94.83
		c0,0.393-0.183,0.576-0.562,0.576h-0.31c-0.394,0-0.577-0.184-0.577-0.576v-6.215c0-0.395,0.183-0.576,0.577-0.576h0.31
		c0.379,0,0.562,0.182,0.562,0.576V94.83z"/>
	<polygon fill="#FFFFFF" points="41.145,92.916 39.739,86.803 37.982,86.803 37.982,96.643 39.331,96.643 39.317,90.008 
		40.85,96.643 42.48,96.643 42.48,86.803 41.131,86.803 	"/>
	<path fill="#FFFFFF" d="M45.899,92.566h0.788v2.264c0,0.393-0.183,0.576-0.577,0.576h-0.337c-0.394,0-0.577-0.184-0.577-0.576
		v-6.215c0-0.395,0.183-0.576,0.577-0.576h0.309c0.38,0,0.562,0.182,0.562,0.576v1.504h1.476v-1.588c0-1.211-0.59-1.814-1.813-1.814
		H45.52c-1.224,0-1.828,0.604-1.828,1.828v6.354c0,1.225,0.604,1.828,1.828,1.828h0.801c1.223,0,1.828-0.604,1.828-1.828v-3.627
		h-2.25V92.566z"/>
	<polygon fill="#FFFFFF" points="50.842,92.312 52.614,92.312 52.614,90.949 50.842,90.949 50.842,88.164 52.684,88.164 
		52.684,86.803 49.338,86.803 49.338,96.643 52.712,96.643 52.712,95.279 50.842,95.279 	"/>
	<path fill="#FFFFFF" d="M57.31,92.002c0.548-0.223,0.857-0.645,0.857-1.518v-1.855c0-1.223-0.604-1.826-1.828-1.826h-2.474v9.84
		h1.504v-3.951h0.675c0.436,0,0.633,0.197,0.633,0.633v3.318h1.504v-3.346C58.182,92.553,57.929,92.172,57.31,92.002z
		 M56.664,90.781c0,0.406-0.197,0.604-0.619,0.604H55.37v-3.248h0.731c0.379,0,0.562,0.184,0.562,0.562V90.781z"/>
	<polygon fill="#FFFFFF" points="61.233,88.164 62.583,88.164 62.583,96.643 64.087,96.643 64.087,88.164 65.437,88.164 
		65.437,86.803 61.233,86.803 	"/>
	<polygon fill="#FFFFFF" points="69.447,90.949 67.999,90.949 67.999,86.803 66.495,86.803 66.495,96.643 67.999,96.643 
		67.999,92.312 69.447,92.312 69.447,96.643 70.951,96.643 70.951,86.803 69.447,86.803 	"/>
	<path fill="#FFFFFF" d="M73.428,86.787l-1.406,9.855h1.392l0.182-1.547h1.561l0.197,1.547h1.49l-1.42-9.855H73.428z M73.766,93.76
		l0.617-4.92l0.605,4.92H73.766z"/>
	<polygon fill="#FFFFFF" points="81.076,92.916 79.672,86.803 77.912,86.803 77.912,96.643 79.264,96.643 79.25,90.008 
		80.781,96.643 82.412,96.643 82.412,86.803 81.062,86.803 	"/>
	<path fill="#FFFFFF" d="M86.926,86.787l-1.406,9.855h1.393l0.184-1.547h1.559l0.197,1.547h1.49l-1.42-9.855H86.926z M87.264,93.76
		l0.617-4.92l0.605,4.92H87.264z"/>
	<path fill="#FFFFFF" d="M93.676,86.803h-2.262v9.84h2.262c1.463,0,2.152-0.703,2.152-2.15v-5.539
		C95.828,87.504,95.139,86.803,93.676,86.803z M94.324,94.449c0,0.592-0.268,0.873-0.859,0.873h-0.547v-7.199h0.547
		c0.592,0,0.859,0.281,0.859,0.873V94.449z"/>
	<path fill="#FFFFFF" d="M99.287,86.803h-2.264v9.84h2.264c1.463,0,2.15-0.703,2.15-2.15v-5.539
		C101.438,87.504,100.75,86.803,99.287,86.803z M99.936,94.449c0,0.592-0.268,0.873-0.859,0.873h-0.549v-7.199h0.549
		c0.592,0,0.859,0.281,0.859,0.873V94.449z"/>
	<rect x="102.648" y="86.803" fill="#FFFFFF" width="1.506" height="9.84"/>
	<path fill="#FFFFFF" d="M108.279,94.83c0,0.393-0.186,0.576-0.564,0.576h-0.281c-0.393,0-0.576-0.184-0.576-0.576v-6.215
		c0-0.395,0.184-0.576,0.576-0.576h0.254c0.381,0,0.562,0.182,0.562,0.576v1.926h1.477v-2.01c0-1.223-0.592-1.814-1.814-1.814h-0.73
		c-1.225,0-1.828,0.604-1.828,1.828v6.354c0,1.225,0.604,1.828,1.828,1.828h0.744c1.225,0,1.828-0.604,1.828-1.828v-2.291h-1.475
		V94.83z"/>
	<polygon fill="#FFFFFF" points="110.77,88.164 112.119,88.164 112.119,96.643 113.623,96.643 113.623,88.164 114.973,88.164 
		114.973,86.803 110.77,86.803 	"/>
	<rect x="116.035" y="86.803" fill="#FFFFFF" width="1.506" height="9.84"/>
	<path fill="#FFFFFF" d="M121.369,86.717h-0.803c-1.223,0-1.828,0.604-1.828,1.828v6.354c0,1.225,0.605,1.828,1.828,1.828h0.803
		c1.223,0,1.828-0.604,1.828-1.828v-6.354C123.197,87.32,122.592,86.717,121.369,86.717z M121.691,94.83
		c0,0.393-0.184,0.576-0.561,0.576h-0.311c-0.393,0-0.576-0.184-0.576-0.576v-6.215c0-0.395,0.184-0.576,0.576-0.576h0.311
		c0.377,0,0.561,0.182,0.561,0.576V94.83z"/>
	<polygon fill="#FFFFFF" points="127.568,92.916 126.162,86.803 124.404,86.803 124.404,96.643 125.756,96.643 125.742,90.008 
		127.273,96.643 128.904,96.643 128.904,86.803 127.555,86.803 	"/>
</g>
</svg>
